<?xml version="1.0" encoding="UTF-8" standalone="no"?>
<svg
   xmlns:dc="http://purl.org/dc/elements/1.1/"
   xmlns:cc="http://creativecommons.org/ns#"
   xmlns:rdf="http://www.w3.org/1999/02/22-rdf-syntax-ns#"
   xmlns:svg="http://www.w3.org/2000/svg"
   xmlns="http://www.w3.org/2000/svg"
   xmlns:sodipodi="http://sodipodi.sourceforge.net/DTD/sodipodi-0.dtd"
   xmlns:inkscape="http://www.inkscape.org/namespaces/inkscape"
   version="1.1"
   viewBox="0 0 295 295.13"
   stroke-miterlimit="10"
   clip-path="url(#clip0)"
   id="svg2"
   inkscape:version="0.47 r22583"
   width="100%"
   height="100%"
   sodipodi:docname="SpiralNotepad1.svg"
   style="fill:none;stroke:none"
   inkscape:export-filename="/home/manugarg/creation/code/chrome-page-notes/icon48.png"
   inkscape:export-xdpi="14.637617"
   inkscape:export-ydpi="14.637617">
  <metadata
     id="metadata55">
    <rdf:RDF>
      <cc:Work
         rdf:about="">
        <dc:format>image/svg+xml</dc:format>
        <dc:type
           rdf:resource="http://purl.org/dc/dcmitype/StillImage" />
        <dc:title></dc:title>
      </cc:Work>
    </rdf:RDF>
  </metadata>
  <defs
     id="defs53">
    <inkscape:perspective
       sodipodi:type="inkscape:persp3d"
       inkscape:vp_x="0 : 360 : 1"
       inkscape:vp_y="0 : 1000 : 0"
       inkscape:vp_z="960 : 360 : 1"
       inkscape:persp3d-origin="480 : 240 : 1"
       id="perspective57" />
    <filter
       inkscape:collect="always"
       id="filter4465">
      <feGaussianBlur
         inkscape:collect="always"
         stdDeviation="0.25662933"
         id="feGaussianBlur4467" />
    </filter>
    <filter
       inkscape:collect="always"
       id="filter4469">
      <feGaussianBlur
         inkscape:collect="always"
         stdDeviation="0.25662933"
         id="feGaussianBlur4471" />
    </filter>
    <filter
       inkscape:collect="always"
       id="filter4473">
      <feGaussianBlur
         inkscape:collect="always"
         stdDeviation="0.25662933"
         id="feGaussianBlur4475" />
    </filter>
    <filter
       inkscape:collect="always"
       id="filter4477">
      <feGaussianBlur
         inkscape:collect="always"
         stdDeviation="0.25662933"
         id="feGaussianBlur4479" />
    </filter>
    <filter
       inkscape:collect="always"
       id="filter4481">
      <feGaussianBlur
         inkscape:collect="always"
         stdDeviation="0.25662933"
         id="feGaussianBlur4483" />
    </filter>
    <filter
       inkscape:collect="always"
       id="filter4485">
      <feGaussianBlur
         inkscape:collect="always"
         stdDeviation="0.25662933"
         id="feGaussianBlur4487" />
    </filter>
    <filter
       inkscape:collect="always"
       id="filter4489">
      <feGaussianBlur
         inkscape:collect="always"
         stdDeviation="0.25662933"
         id="feGaussianBlur4491" />
    </filter>
    <filter
       inkscape:collect="always"
       id="filter4493">
      <feGaussianBlur
         inkscape:collect="always"
         stdDeviation="0.25662933"
         id="feGaussianBlur4495" />
    </filter>
    <filter
       inkscape:collect="always"
       id="filter4497">
      <feGaussianBlur
         inkscape:collect="always"
         stdDeviation="0.25662933"
         id="feGaussianBlur4499" />
    </filter>
    <filter
       inkscape:collect="always"
       id="filter4501">
      <feGaussianBlur
         inkscape:collect="always"
         stdDeviation="0.25662933"
         id="feGaussianBlur4503" />
    </filter>
    <filter
       inkscape:collect="always"
       id="filter4505">
      <feGaussianBlur
         inkscape:collect="always"
         stdDeviation="0.25662933"
         id="feGaussianBlur4507" />
    </filter>
  </defs>
  <sodipodi:namedview
     pagecolor="#ffffff"
     bordercolor="#666666"
     borderopacity="1"
     objecttolerance="10"
     gridtolerance="10"
     guidetolerance="10"
     inkscape:pageopacity="0"
     inkscape:pageshadow="2"
     inkscape:window-width="1280"
     inkscape:window-height="725"
     id="namedview51"
     showgrid="false"
     inkscape:zoom="1"
     inkscape:cx="163.73495"
     inkscape:cy="139.51085"
     inkscape:window-x="0"
     inkscape:window-y="24"
     inkscape:window-maximized="1"
     inkscape:current-layer="svg2" />
  <clipPath
     id="clip0">
    <path
       d="M 0,0 960,0 960,720 0,720 0,0 z"
       clip-rule="nonzero"
       id="path5" />
  </clipPath>
  <path
     d="m -298.69324,275.05314 0,0 c 0,-19.26549 19.31153,-34.88325 43.13352,-34.88325 l 172.528969,0 0,0 c 11.43973,0 22.4109,3.67519 30.50001,10.21707 8.08911,6.54188 12.63352,15.41457 12.63352,24.66618 l 0,171.42524 c 0,19.26548 -19.31152,34.88323 -43.13353,34.88323 l -172.528969,0 c -23.82199,0 -43.13352,-15.61775 -43.13352,-34.88323 z"
     id="path7"
     inkscape:export-filename="/home/manugarg/creation/code/chrome-page-notes/icon19.png"
     inkscape:export-xdpi="6.0942888"
     inkscape:export-ydpi="6.0942888"
     style="fill:#ffffff;fill-rule:nonzero;stroke:#274e13;stroke-width:21.65600014;stroke-linecap:butt;stroke-linejoin:miter;stroke-miterlimit:10;stroke-dasharray:none;marker-end:none" />
  <path
     d="m 53.191097,125.07922 188.650363,0"
     id="path11"
     inkscape:export-filename="/home/manugarg/creation/code/chrome-page-notes/icon48.png"
     inkscape:export-xdpi="14.637506"
     inkscape:export-ydpi="14.637506"
     style="stroke:#2a736d;stroke-width:6.7334547;stroke-linecap:butt;stroke-linejoin:miter;stroke-miterlimit:10;stroke-opacity:1;stroke-dasharray:none;marker-end:none;filter:url(#filter4505)"
     transform="matrix(1.0592271,0,0,1,-7.7051102,0)" />
  <path
     d="m 53.191097,153.71952 188.650363,0"
     id="path13"
     inkscape:export-filename="/home/manugarg/creation/code/chrome-page-notes/icon48.png"
     inkscape:export-xdpi="14.637506"
     inkscape:export-ydpi="14.637506"
     style="stroke:#2a736d;stroke-width:6.7334547;stroke-linecap:butt;stroke-linejoin:miter;stroke-miterlimit:10;stroke-opacity:1;stroke-dasharray:none;marker-end:none;filter:url(#filter4501)"
     transform="matrix(1.0592271,0,0,1,-7.7051102,0)" />
  <path
     d="m 54.598059,179.95167 188.650351,0"
     id="path15"
     inkscape:export-filename="/home/manugarg/creation/code/chrome-page-notes/icon48.png"
     inkscape:export-xdpi="14.637506"
     inkscape:export-ydpi="14.637506"
     style="stroke:#2a736d;stroke-width:6.7334547;stroke-linecap:butt;stroke-linejoin:miter;stroke-miterlimit:10;stroke-opacity:1;stroke-dasharray:none;marker-end:none;filter:url(#filter4497)"
     transform="matrix(1.0592271,0,0,1,-7.7051102,0)" />
  <path
     d="m 54.598059,207.45147 188.650351,0"
     id="path17"
     inkscape:export-filename="/home/manugarg/creation/code/chrome-page-notes/icon48.png"
     inkscape:export-xdpi="14.637506"
     inkscape:export-ydpi="14.637506"
     style="stroke:#2a736d;stroke-width:6.7334547;stroke-linecap:butt;stroke-linejoin:miter;stroke-miterlimit:10;stroke-opacity:1;stroke-dasharray:none;marker-end:none;filter:url(#filter4493)"
     transform="matrix(1.0592271,0,0,1,-7.7051102,0)" />
  <path
     d="m 53.191097,234.82434 188.650363,0"
     id="path19"
     inkscape:export-filename="/home/manugarg/creation/code/chrome-page-notes/icon48.png"
     inkscape:export-xdpi="14.637506"
     inkscape:export-ydpi="14.637506"
     style="stroke:#2a736d;stroke-width:6.7334547;stroke-linecap:butt;stroke-linejoin:miter;stroke-miterlimit:10;stroke-opacity:1;stroke-dasharray:none;marker-end:none;filter:url(#filter4489)"
     transform="matrix(1.0592271,0,0,1,-7.7051102,0)" />
  <path
     d="m 53.191097,98.086889 188.650363,0"
     id="path21"
     inkscape:export-filename="/home/manugarg/creation/code/chrome-page-notes/icon48.png"
     inkscape:export-xdpi="14.637506"
     inkscape:export-ydpi="14.637506"
     style="stroke:#2a736d;stroke-width:6.7334547;stroke-linecap:butt;stroke-linejoin:miter;stroke-miterlimit:10;stroke-opacity:1;stroke-dasharray:none;marker-end:none;filter:url(#filter4485)"
     transform="matrix(1.0592271,0,0,1,-7.7051102,0)" />
  <rect
     style="fill:#800000;fill-opacity:0;stroke:#2a736d;stroke-width:13.4667778;stroke-linecap:butt;stroke-linejoin:round;stroke-miterlimit:10;stroke-opacity:1;stroke-dasharray:none;filter:url(#filter4481)"
     id="rect3780"
     width="226.86568"
     height="254.13358"
     x="33.54583"
     y="33.450592"
     inkscape:export-filename="/home/manugarg/creation/code/chrome-page-notes/icon48.png"
     inkscape:export-xdpi="14.637506"
     inkscape:export-ydpi="14.637506"
     transform="matrix(1.0592271,0,0,1,-7.7051102,0)" />
  <path
     d="m 66.631278,10.258559 0,0 c 0,-5.0077695 4.521129,-9.0673795 10.098247,-9.0673795 l 0,0 0,0 c 2.67822,0 5.246775,0.95531 7.140577,2.65578 1.893791,1.70046 2.95769,4.00679 2.95769,6.4115995 l 0,43.13825 c 0,5.0078 -4.521149,9.0674 -10.098267,9.0674 l 0,0 0,0 c -5.577118,0 -10.098247,-4.0596 -10.098247,-9.0674 z"
     id="path9"
     inkscape:export-filename="/home/manugarg/creation/code/chrome-page-notes/icon48.png"
     inkscape:export-xdpi="14.637506"
     inkscape:export-ydpi="14.637506"
     style="fill:#2a736d;fill-opacity:1;fill-rule:nonzero;stroke:#577899;stroke-width:1.12224269;stroke-linecap:butt;stroke-linejoin:miter;stroke-miterlimit:10;stroke-opacity:1;stroke-dasharray:none;marker-end:none;filter:url(#filter4477)"
     transform="matrix(1.0592271,0,0,1,-7.7051102,0)" />
  <path
     d="m 113.44478,10.418999 0,0 c 0,-5.0077595 4.52113,-9.0673695 10.09827,-9.0673695 l 0,0 0,0 c 2.6782,0 5.24674,0.9553 7.14053,2.65578 1.89381,1.70045 2.95773,4.00679 2.95773,6.4115895 l 0,43.13829 c 0,5.00776 -4.52117,9.06738 -10.09826,9.06738 l 0,0 0,0 c -5.57714,0 -10.09827,-4.05962 -10.09827,-9.06738 z"
     id="path23"
     inkscape:export-filename="/home/manugarg/creation/code/chrome-page-notes/icon48.png"
     inkscape:export-xdpi="14.637506"
     inkscape:export-ydpi="14.637506"
     style="fill:#2a736d;fill-opacity:1;fill-rule:nonzero;stroke:#577899;stroke-width:1.12224269;stroke-linecap:butt;stroke-linejoin:miter;stroke-miterlimit:10;stroke-opacity:1;stroke-dasharray:none;marker-end:none;filter:url(#filter4473)"
     transform="matrix(1.0592271,0,0,1,-7.7051102,0)" />
  <path
     d="m 160.07961,10.338789 0,0 c 0,-5.0077695 4.52113,-9.0673695 10.09825,-9.0673695 l 0,0 0,0 c 2.67824,0 5.24676,0.95531 7.14055,2.65575 1.89379,1.70047 2.95772,4.00679 2.95772,6.4116195 l 0,43.13827 c 0,5.00777 -4.52114,9.06737 -10.09827,9.06737 l 0,0 0,0 c -5.57712,0 -10.09825,-4.0596 -10.09825,-9.06737 z"
     id="path25"
     inkscape:export-filename="/home/manugarg/creation/code/chrome-page-notes/icon48.png"
     inkscape:export-xdpi="14.637506"
     inkscape:export-ydpi="14.637506"
     style="fill:#2a736d;fill-opacity:1;fill-rule:nonzero;stroke:#577899;stroke-width:1.12224269;stroke-linecap:butt;stroke-linejoin:miter;stroke-miterlimit:10;stroke-opacity:1;stroke-dasharray:none;marker-end:none;filter:url(#filter4469)"
     transform="matrix(1.0592271,0,0,1,-7.7051102,0)" />
  <path
     d="m 206.89311,10.499219 0,0 c 0,-5.0077495 4.52115,-9.0673595 10.09827,-9.0673595 l 0,0 0,0 c 2.6782,0 5.24674,0.9553 7.14055,2.65577 1.89379,1.70045 2.95772,4.00677 2.95772,6.4115895 l 0,43.13829 c 0,5.00775 -4.52118,9.06737 -10.09827,9.06737 l 0,0 0,0 c -5.57712,0 -10.09827,-4.05962 -10.09827,-9.06737 z"
     id="path27"
     inkscape:export-filename="/home/manugarg/creation/code/chrome-page-notes/icon48.png"
     inkscape:export-xdpi="14.637506"
     inkscape:export-ydpi="14.637506"
     style="fill:#2a736d;fill-opacity:1;fill-rule:nonzero;stroke:#577899;stroke-width:1.12224269;stroke-linecap:butt;stroke-linejoin:miter;stroke-miterlimit:10;stroke-opacity:1;stroke-dasharray:none;marker-end:none;filter:url(#filter4465)"
     transform="matrix(1.0592271,0,0,1,-7.7051102,0)" />
</svg>
