<?xml version="1.0" encoding="UTF-8" standalone="no"?>
<svg
   xmlns:dc="http://purl.org/dc/elements/1.1/"
   xmlns:cc="http://creativecommons.org/ns#"
   xmlns:rdf="http://www.w3.org/1999/02/22-rdf-syntax-ns#"
   xmlns:svg="http://www.w3.org/2000/svg"
   xmlns="http://www.w3.org/2000/svg"
   xmlns:sodipodi="http://sodipodi.sourceforge.net/DTD/sodipodi-0.dtd"
   xmlns:inkscape="http://www.inkscape.org/namespaces/inkscape"
   version="1.1"
   viewBox="0 0 280.45221 280.59054"
   stroke-miterlimit="10"
   clip-path="url(#clip0)"
   id="svg2"
   inkscape:version="0.47 r22583"
   width="100%"
   height="100%"
   sodipodi:docname="SpiralNotepad.svg"
   style="fill:none;stroke:none">
  <metadata
     id="metadata55">
    <rdf:RDF>
      <cc:Work
         rdf:about="">
        <dc:format>image/svg+xml</dc:format>
        <dc:type
           rdf:resource="http://purl.org/dc/dcmitype/StillImage" />
        <dc:title />
      </cc:Work>
    </rdf:RDF>
  </metadata>
  <defs
     id="defs53">
    <inkscape:perspective
       sodipodi:type="inkscape:persp3d"
       inkscape:vp_x="0 : 360 : 1"
       inkscape:vp_y="0 : 1000 : 0"
       inkscape:vp_z="960 : 360 : 1"
       inkscape:persp3d-origin="480 : 240 : 1"
       id="perspective57" />
  </defs>
  <sodipodi:namedview
     pagecolor="#ffffff"
     bordercolor="#666666"
     borderopacity="1"
     objecttolerance="10"
     gridtolerance="10"
     guidetolerance="10"
     inkscape:pageopacity="0"
     inkscape:pageshadow="2"
     inkscape:window-width="1280"
     inkscape:window-height="725"
     id="namedview51"
     showgrid="false"
     inkscape:zoom="1"
     inkscape:cx="255.47231"
     inkscape:cy="174.85618"
     inkscape:window-x="0"
     inkscape:window-y="24"
     inkscape:window-maximized="1"
     inkscape:current-layer="svg2" />
  <clipPath
     id="clip0">
    <path
       d="M 0,0 960,0 960,720 0,720 0,0 z"
       clip-rule="nonzero"
       id="path5" />
  </clipPath>
  <path
     d="m 10.828093,63.453982 0,0 c 0,-19.26549 19.31153,-34.88325 43.13352,-34.88325 l 172.528967,0 0,0 c 11.43973,0 22.4109,3.67519 30.50001,10.21707 8.08911,6.54188 12.63352,15.41457 12.63352,24.66618 l 0,171.425238 c 0,19.26548 -19.31152,34.88323 -43.13353,34.88323 l -172.528967,0 c -23.82199,0 -43.13352,-15.61775 -43.13352,-34.88323 z"
     id="path7"
     inkscape:export-filename="/home/manugarg/creation/code/chrome-page-notes/icon19.png"
     inkscape:export-xdpi="6.0942888"
     inkscape:export-ydpi="6.0942888"
     style="fill:#ffffff;fill-rule:nonzero;stroke:#274e13;stroke-width:21.65621376;stroke-linecap:butt;stroke-linejoin:round" />
  <path
     d="m 56.667523,8.9659223 0,0 c 0,-4.45339 4.46402,-8.06357998 9.97069,-8.06357998 l 0,0 0,0 c 2.64439,0 5.1805,0.84954998 7.05038,2.36176998 1.86987,1.51221 2.92033,3.56322 2.92033,5.70181 l 0,38.3626797 c 0,4.45341 -4.46404,8.06359 -9.97071,8.06359 l 0,0 0,0 c -5.50667,0 -9.97069,-3.61018 -9.97069,-8.06359 z"
     id="path9"
     inkscape:export-filename="/home/manugarg/creation/code/chrome-page-notes/icon19.png"
     inkscape:export-xdpi="6.0942888"
     inkscape:export-ydpi="6.0942888"
     style="fill:#274e13;fill-rule:nonzero;stroke:#073763;stroke-width:1.80468464;stroke-linecap:butt;stroke-linejoin:round" />
  <path
     d="m 43.397113,114.76014 186.267407,0"
     id="path11"
     inkscape:export-filename="/home/manugarg/creation/code/chrome-page-notes/icon19.png"
     inkscape:export-xdpi="6.0942888"
     inkscape:export-ydpi="6.0942888"
     style="stroke:#6aa84f;stroke-width:10.82810688;stroke-linecap:butt;stroke-linejoin:round" />
  <path
     d="m 43.397113,140.22986 186.267407,0"
     id="path13"
     inkscape:export-filename="/home/manugarg/creation/code/chrome-page-notes/icon19.png"
     inkscape:export-xdpi="6.0942888"
     inkscape:export-ydpi="6.0942888"
     style="stroke:#6aa84f;stroke-width:10.82810688;stroke-linecap:butt;stroke-linejoin:round" />
  <path
     d="m 44.786303,163.558 186.267397,0"
     id="path15"
     inkscape:export-filename="/home/manugarg/creation/code/chrome-page-notes/icon19.png"
     inkscape:export-xdpi="6.0942888"
     inkscape:export-ydpi="6.0942888"
     style="stroke:#6aa84f;stroke-width:10.82810688;stroke-linecap:butt;stroke-linejoin:round" />
  <path
     d="m 44.786303,188.01346 186.267397,0"
     id="path17"
     inkscape:export-filename="/home/manugarg/creation/code/chrome-page-notes/icon19.png"
     inkscape:export-xdpi="6.0942888"
     inkscape:export-ydpi="6.0942888"
     style="stroke:#6aa84f;stroke-width:10.82810688;stroke-linecap:butt;stroke-linejoin:round" />
  <path
     d="m 43.397113,212.35604 186.267407,0"
     id="path19"
     inkscape:export-filename="/home/manugarg/creation/code/chrome-page-notes/icon19.png"
     inkscape:export-xdpi="6.0942888"
     inkscape:export-ydpi="6.0942888"
     style="stroke:#6aa84f;stroke-width:10.82810688;stroke-linecap:butt;stroke-linejoin:round" />
  <path
     d="m 43.397113,90.755972 186.267407,0"
     id="path21"
     inkscape:export-filename="/home/manugarg/creation/code/chrome-page-notes/icon19.png"
     inkscape:export-xdpi="6.0942888"
     inkscape:export-ydpi="6.0942888"
     style="stroke:#6aa84f;stroke-width:10.82810688;stroke-linecap:butt;stroke-linejoin:round" />
  <path
     d="m 102.88969,9.1086023 0,0 c 0,-4.45339 4.46403,-8.06358 9.97072,-8.06358 l 0,0 0,0 c 2.64437,0 5.18046,0.84955 7.05033,2.36177 1.86989,1.51221 2.92037,3.56322 2.92037,5.70181 l 0,38.3626997 c 0,4.45339 -4.46406,8.06359 -9.9707,8.06359 l 0,0 0,0 c -5.50669,0 -9.97072,-3.6102 -9.97072,-8.06359 z"
     id="path23"
     inkscape:export-filename="/home/manugarg/creation/code/chrome-page-notes/icon19.png"
     inkscape:export-xdpi="6.0942888"
     inkscape:export-ydpi="6.0942888"
     style="fill:#274e13;fill-rule:nonzero;stroke:#073763;stroke-width:1.80468464;stroke-linecap:butt;stroke-linejoin:round" />
  <path
     d="m 148.93545,9.0372623 0,0 c 0,-4.4534 4.46402,-8.06357998 9.9707,-8.06357998 l 0,0 0,0 c 2.6444,0 5.18048,0.84955998 7.05035,2.36175998 1.86987,1.51222 2.92036,3.56322 2.92036,5.70182 l 0,38.3626897 c 0,4.4534 -4.46403,8.06358 -9.97071,8.06358 l 0,0 0,0 c -5.50668,0 -9.9707,-3.61018 -9.9707,-8.06358 z"
     id="path25"
     inkscape:export-filename="/home/manugarg/creation/code/chrome-page-notes/icon19.png"
     inkscape:export-xdpi="6.0942888"
     inkscape:export-ydpi="6.0942888"
     style="fill:#274e13;fill-rule:nonzero;stroke:#073763;stroke-width:1.80468464;stroke-linecap:butt;stroke-linejoin:round" />
  <path
     d="m 195.15762,9.1799323 0,0 c 0,-4.45338 4.46404,-8.06357 9.97072,-8.06357 l 0,0 0,0 c 2.64437,0 5.18046,0.84955 7.05035,2.36177 1.86987,1.51221 2.92036,3.56321 2.92036,5.7018 l 0,38.3627097 c 0,4.45338 -4.46407,8.06358 -9.97071,8.06358 l 0,0 0,0 c -5.50668,0 -9.97072,-3.6102 -9.97072,-8.06358 z"
     id="path27"
     inkscape:export-filename="/home/manugarg/creation/code/chrome-page-notes/icon19.png"
     inkscape:export-xdpi="6.0942888"
     inkscape:export-ydpi="6.0942888"
     style="fill:#274e13;fill-rule:nonzero;stroke:#073763;stroke-width:1.80468464;stroke-linecap:butt;stroke-linejoin:round" />
</svg>
